# xmcd
#
# Track frame offsets: 
#        150
#        45115
#        116097
#        142292
#        215290
#        240562
#
# Disc length: 3760 seconds
#
# Revision: 0
# Processed by: cddbd v1.5.2PL0 Copyright (c) Steve Scherf et al.
# Submitted via: ExactAudioCopy v1.0b1
#
DISCID=500eae06
DTITLE=walter gieseking - Beethoven,cd1
DYEAR=2001
DGENRE=Classical
TTITLE0=Sonata No. 9, Op. 47, 'Kreutzer': Adagio sostenuto: Presto 
TTITLE1=Sonata No. 9, Op. 47, 'Kreutzer': Andante con variazioni
TTITLE2=Sonata No. 9, Op. 47, 'Kreutzer': Presto
TTITLE3=Pno Con No.4 in G, Op.58: I. Allegro Moderato
TTITLE4=Pno Con No.4 in G, Op.58: I. Allegro Moderato
TTITLE5=Pno Con No.4 in G, Op.58: III. Rondo: Vivace
EXTD=
EXTT0=
EXTT1=
EXTT2=
EXTT3=
EXTT4=
EXTT5=
PLAYORDER=
